# xmcd
#
# Track frame offsets:
#	183
#	14383
#	32545
#	51133
#	65010
#	90033
#	112828
#	124870
#	143658
#	175233
#
# Disc length: 2608 seconds
#
# Revision: 11
# Processed by: cddbd v1.5.2PL0 Copyright (c) Steve Scherf et al.
# Submitted via: audiograbber 1.83.01
#
DISCID=760a2e0a
DTITLE=Rowland, Kevin and Dexys Midnight Runners - Too-Rye-Ay
DYEAR=1982
DGENRE=Pop
TTITLE0=The celtic soul brothers
TTITLE1=Let's make this precious
TTITLE2=All in all (this one last wild waltz)
TTITLE3=Jackie Wilson said (I'm in heaven when you smile)
TTITLE4=Old
TTITLE5=Plan B
TTITLE6=I'll show you
TTITLE7=Liars A to E
TTITLE8=Until I believe in my soul
TTITLE9=Come on Eileen
EXTD=
EXTT0=
EXTT1=
EXTT2=
EXTT3=
EXTT4=
EXTT5=
EXTT6=
EXTT7=
EXTT8=
EXTT9=
PLAYORDER=
